HIERARCHY
ROOT root
{
	OFFSET	0	13.1	24.9
	CHANNELS 6  Xposition Yposition Zposition Xrotation Yrotation Zrotation
	JOINT spine_1
	{
		OFFSET	0	9.99999	0
		CHANNELS 3  Xrotation Yrotation Zrotation
		JOINT spine_2
		{
			OFFSET	0	112	-10
			CHANNELS 3  Xrotation Yrotation Zrotation
			JOINT spine_3
			{
				OFFSET	0	206.5	19.3
				CHANNELS 3  Xrotation Yrotation Zrotation
				JOINT spine_4
				{
					OFFSET	0	110.4	14.6
					CHANNELS 3  Xrotation Yrotation Zrotation
					JOINT neck_1
					{
						OFFSET	0	71.8	-50.3
						CHANNELS 3  Xrotation Yrotation Zrotation
						JOINT neck_2
						{
							OFFSET	0	86.2	-25.8
							CHANNELS 3  Xrotation Yrotation Zrotation
							JOINT head_ee
							{
								OFFSET	0	179.8	-8.7
								CHANNELS 3  Xrotation Yrotation Zrotation
								End Site
								{
									OFFSET	1	0	0
								}
							}
						}
					}
					JOINT left_clavicle
					{
						OFFSET	-43.2	22.4	-70.8
						CHANNELS 3  Xrotation Yrotation Zrotation
						JOINT left_shoulder
						{
							OFFSET	-93.9	-5.79999	48.7
							CHANNELS 3  Xrotation Yrotation Zrotation
							JOINT left_elbow
							{
								OFFSET	-291.4	-30.8	15.2
								CHANNELS 3  Xrotation Yrotation Zrotation
								JOINT left_lowarm_twist
								{
									OFFSET	-110.7	-3.89999	13.6
									CHANNELS 3  Xrotation Yrotation Zrotation
									JOINT left_hand
									{
										OFFSET	-110.7	-3.89999	13.6
										CHANNELS 3  Xrotation Yrotation Zrotation
										JOINT left_ee
										{
											OFFSET	-80.8	-5.10001	12.1
											CHANNELS 3  Xrotation Yrotation Zrotation
											End Site
											{
												OFFSET	1	0	0
											}
										}
									}
								}
							}
						}
					}
					JOINT right_clavicle
					{
						OFFSET	43.2	22.4	-70.8
						CHANNELS 3  Xrotation Yrotation Zrotation
						JOINT right_shoulder
						{
							OFFSET	93.9	-5.79999	48.7
							CHANNELS 3  Xrotation Yrotation Zrotation
							JOINT right_elbow
							{
								OFFSET	291.4	-30.8	15.2
								CHANNELS 3  Xrotation Yrotation Zrotation
								JOINT right_lowarm_twist
								{
									OFFSET	110.7	-3.89999	13.6
									CHANNELS 3  Xrotation Yrotation Zrotation
									JOINT right_hand
									{
										OFFSET	110.7	-3.89999	13.6
										CHANNELS 3  Xrotation Yrotation Zrotation
										JOINT right_ee
										{
											OFFSET	80.8	-5.10001	12.1
											CHANNELS 3  Xrotation Yrotation Zrotation
											End Site
											{
												OFFSET	1	0	0
											}
										}
									}
								}
							}
						}
					}
				}
			}
		}
	}
	JOINT left_hip
	{
		OFFSET	-82.8	-127.5	0.300001
		CHANNELS 3  Xrotation Yrotation Zrotation
		JOINT left_knee
		{
			OFFSET	-28.2	-396.7	2.2
			CHANNELS 3  Xrotation Yrotation Zrotation
			JOINT left_ankle
			{
				OFFSET	-11.7	-411.3	35.4
				CHANNELS 3  Xrotation Yrotation Zrotation
				JOINT left_toes
				{
					OFFSET	0	-60	-88.6
					CHANNELS 3  Xrotation Yrotation Zrotation
					JOINT left_foot_ee
					{
						OFFSET	-22.5	-16.5	-42.2
						CHANNELS 3  Xrotation Yrotation Zrotation
						End Site
						{
							OFFSET	1	0	0
						}
					}
				}
			}
		}
	}
	JOINT right_hip
	{
		OFFSET	82.8	-127.5	0.300001
		CHANNELS 3  Xrotation Yrotation Zrotation
		JOINT right_knee
		{
			OFFSET	28.2	-396.7	2.2
			CHANNELS 3  Xrotation Yrotation Zrotation
			JOINT right_ankle
			{
				OFFSET	11.7	-411.3	35.4
				CHANNELS 3  Xrotation Yrotation Zrotation
				JOINT right_toes
				{
					OFFSET	0	-60	-88.6
					CHANNELS 3  Xrotation Yrotation Zrotation
					JOINT right_foot_ee
					{
						OFFSET	22.5	-16.5	-42.2
						CHANNELS 3  Xrotation Yrotation Zrotation
						End Site
						{
							OFFSET	1	0	0
						}
					}
				}
			}
		}
	}
}
MOTION
Frames: 7
Frame Time: 0.02
2930.23175617 677.817 -1854.99815476 -5.73934604186 27.6607723132 5.47035807406 2.42343 -0.240119 -1.18343 2.4242 -0.164333 -1.19631 2.42754 0.0396842 -1.20689 2.42554 -0.151406 -1.19802 -3.26653 3.05883 2.57071 -3.24729 3.57208 3.1202 -0.0 0.0 -0.0 9.6792 -6.19976 19.1505 -32.4449 -52.727 42.375 0.625168 -17.2073 0.0945898 0.481195 0.016706 -0.0591849 -3.24939 13.264 -15.1268 -0.0 0.0 -0.0 5.2446 -4.15279 -10.2313 -25.7042 40.9632 -64.0605 0.372921 10.4667 -0.0341575 33.2924 0.047088 4.19338 -2.44 8.10547 20.3329 0.0 0.0 0.0 15.4276 -20.1965 2.28468 -9.67974 0.275918 1.45815 6.37149 23.515 -0.950552 -29.1583 0.0 0.0 -0.0 0.0 -0.0 36.7077 21.3399 -5.47606 -65.7164 2.84783 -9.12375 11.4372 -17.6226 1.64151 6.78233 -0.0 -0.0 0.0 0.0 0.0 
2931.43214352 677.817 -1856.58271418 -5.72019857293 27.2938387265 5.42885940753 2.42343 -0.240119 -1.18343 2.4242 -0.164333 -1.19631 2.42754 0.0396842 -1.20689 2.42554 -0.151406 -1.19802 -3.26653 3.05883 2.57071 -3.24729 3.57208 3.1202 -0.0 0.0 -0.0 9.6792 -6.19976 19.1505 -32.4449 -52.727 42.375 0.625168 -17.2073 0.0945898 0.481195 0.016706 -0.0591849 -3.24939 13.264 -15.1268 -0.0 0.0 -0.0 5.2446 -4.15279 -10.2313 -25.7042 40.9632 -64.0605 0.372921 10.4667 -0.0341575 33.2924 0.047088 4.19338 -2.44 8.10547 20.3329 0.0 0.0 0.0 15.4276 -20.1965 2.28468 -9.67974 0.275918 1.45815 6.37149 23.515 -0.950552 -29.1583 0.0 0.0 -0.0 0.0 -0.0 36.7077 21.3399 -5.47606 -65.7164 2.84783 -9.12375 11.4372 -17.6226 1.64151 6.78233 -0.0 -0.0 0.0 0.0 0.0 
2919.62490962 676.768 -1863.45730719 -6.42248665402 27.4391102608 5.8214320559 2.63869 -0.349399 -1.24154 2.63951 -0.269695 -1.26125 2.64532 -0.0581476 -1.28844 2.6431 -0.260887 -1.2631 -6.28012 2.78208 0.769459 -6.27767 4.58505 1.30731 -0.0 0.0 -0.0 9.7666 -8.01312 19.3417 -31.734 -50.9341 40.3851 0.662433 -18.1673 0.105912 -2.95961 -0.113636 0.36078 -3.88921 12.889 -19.5813 -0.0 0.0 -0.0 5.0614 -7.22255 -9.93302 -28.0894 40.3987 -60.9366 0.48739 13.5738 -0.0580052 32.902 0.0324222 4.14569 -1.93331 8.324 16.8246 0.0 0.0 0.0 13.9422 -20.2669 2.20575 -6.75877 0.218695 1.01362 7.9887 20.9243 -1.17281 -28.7949 0.0 0.0 -0.0 0.0 -0.0 39.5769 21.7249 -6.39618 -64.3638 2.68916 -8.98801 11.2867 -16.3919 1.61512 6.63021 -0.0 -0.0 0.0 0.0 0.0 
2909.8498068 675.485 -1868.84156124 -6.30507622409 28.2481565421 5.38828471252 3.0412 -0.183744 -1.07846 3.04184 -0.11475 -1.08797 3.04382 0.0585533 -1.09244 3.04217 -0.114701 -1.08797 -9.75735 3.32532 1.65896 -9.75804 5.12542 2.43397 -0.0 0.0 -0.0 9.72809 -9.47777 19.247 -30.5682 -49.7437 37.2352 0.766858 -20.8007 0.140752 -9.13683 -0.41005 1.09254 -4.82397 14.1075 -25.2101 -0.0 0.0 -0.0 5.36797 -8.39191 -10.4922 -30.4412 39.9629 -60.0758 0.458241 12.7896 -0.0513581 31.6168 -0.0135603 3.98799 -1.06497 6.08001 9.8098 0.0 0.0 0.0 12.2705 -14.5044 2.61396 -5.53551 0.188009 0.828405 15.556 24.937 -2.26946 -27.8533 0.0 0.0 -0.0 0.0 -0.0 43.0449 21.5109 -8.21502 -63.6271 2.60411 -8.91253 8.52026 -16.0892 1.22942 5.96197 -0.0 -0.0 0.0 0.0 0.0 
2855.20306409 677.51 -1918.5325383 -6.07533590405 32.4914200675 4.77022161762 3.37541 0.0134879 -0.876316 3.37584 0.0692207 -0.873682 3.3746 0.20146 -0.852953 3.37359 0.0642295 -0.874063 -12.6873 4.93835 5.87284 -12.6098 5.66858 7.05232 -0.0 0.0 -0.0 10.2199 -9.38807 20.3208 -23.6978 -45.0194 33.0215 1.24594 -31.6816 0.353537 -29.7175 -1.92977 3.22874 -8.33515 17.233 -51.311 -0.0 0.0 -0.0 6.35817 -15.7635 -12.0165 -30.9426 29.5474 -60.1039 0.212712 6.01529 -0.0111763 33.7929 0.0663684 4.25438 -1.50244 -4.26956 8.13353 0.0 0.0 0.0 8.50765 -2.59651 3.07408 -6.53931 0.213481 0.980343 28.8541 26.4864 -4.01021 -20.4269 0.0 0.0 -0.0 0.0 -0.0 47.833 17.2677 -9.15118 -58.9105 2.0835 -8.40432 -0.549631 -6.96071 -0.0805646 3.5505 -0.0 -0.0 0.0 0.0 0.0 
2838.35393762 679.279 -1923.25617154 -6.08022143346 34.2046767389 4.50138516396 3.20615 -0.0892501 -0.850009 3.20655 -0.0349829 -0.853965 3.20692 0.0979433 -0.849051 3.20592 -0.0373727 -0.853864 -13.5286 5.43079 7.19833 -13.4061 5.89136 8.49949 -0.0 0.0 -0.0 10.3772 -8.78565 20.668 -22.6211 -43.2757 33.0646 1.302 -32.8194 0.383453 -33.3018 -2.26859 3.53928 -8.74141 17.7741 -55.0678 -0.0 0.0 -0.0 7.16776 -16.4079 -13.301 -32.6012 25.8432 -58.5684 0.238832 6.74747 -0.0140794 34.5535 0.0966838 4.34675 -1.49705 -7.20455 6.74631 0.0 0.0 0.0 8.12673 1.67935 3.36264 -8.09005 0.247587 1.21586 30.5686 26.959 -4.22434 -18.5858 0.0 0.0 -0.0 0.0 -0.0 47.8042 17.7629 -8.49599 -55.8928 1.77319 -8.05764 -2.38191 -4.89697 -0.351143 2.7648 -0.0 -0.0 0.0 0.0 0.0 
2819.74918701 678.203 -1924.9389242 -6.21486745564 35.9278215559 4.60824517083 3.11873 -0.0925006 -0.867744 3.11915 -0.0370985 -0.871871 3.11957 0.0999534 -0.866917 3.11853 -0.038209 -0.871823 -13.9078 5.53816 6.43852 -13.8222 6.62004 7.83381 -0.0 0.0 -0.0 10.6199 -7.48559 21.1942 -21.0503 -42.4303 33.3481 1.44202 -35.5374 0.462136 -36.9985 -2.63776 3.83686 -9.0344 17.8055 -58.6358 -0.0 0.0 -0.0 7.25291 -16.0178 -13.4691 -32.4787 22.9465 -58.4717 0.263325 7.43207 -0.0171024 36.017 0.158467 4.52335 -1.49441 -9.07277 5.86642 0.0 0.0 0.0 8.16988 4.63341 3.1861 -9.10808 0.266505 1.37093 31.8628 26.3794 -4.35662 -17.4542 0.0 0.0 -0.0 0.0 -0.0 45.5521 19.4306 -8.15728 -50.3785 1.25529 -7.38445 -0.905143 -3.37478 -0.133263 2.35877 -0.0 -0.0 0.0 0.0 0.0 
